<svg viewBox="0 0 800 150" width="100%" height="auto" xmlns="http://www.w3.org/2000/svg" role="img" aria-label="Phylogenetic tree"><rect x="0" y="0" width="100%" height="100%" fill="#fcfdff"/><line x1="24.00" y1="44.00" x2="24.00" y2="108.00" stroke="#2f4a67" stroke-width="1.5"/><circle cx="24.00" cy="76.00" r="2.3" fill="#2f4a67"/><line x1="24.00" y1="44.00" x2="294.91" y2="44.00" stroke="#2f4a67" stroke-width="1.5"/><line x1="294.91" y1="28.00" x2="294.91" y2="60.00" stroke="#2f4a67" stroke-width="1.5"/><circle cx="294.91" cy="44.00" r="2.3" fill="#2f4a67"/><line x1="294.91" y1="28.00" x2="430.36" y2="28.00" stroke="#2f4a67" stroke-width="1.5"/><circle cx="430.36" cy="28.00" r="2.3" fill="#2b3642"/><line x1="294.91" y1="60.00" x2="430.36" y2="60.00" stroke="#2f4a67" stroke-width="1.5"/><circle cx="430.36" cy="60.00" r="2.3" fill="#2b3642"/><line x1="24.00" y1="108.00" x2="294.91" y2="108.00" stroke="#2f4a67" stroke-width="1.5"/><line x1="294.91" y1="92.00" x2="294.91" y2="124.00" stroke="#2f4a67" stroke-width="1.5"/><circle cx="294.91" cy="108.00" r="2.3" fill="#2f4a67"/><line x1="294.91" y1="92.00" x2="511.64" y2="92.00" stroke="#2f4a67" stroke-width="1.5"/><circle cx="511.64" cy="92.00" r="2.3" fill="#2b3642"/><line x1="294.91" y1="124.00" x2="620.00" y2="124.00" stroke="#2f4a67" stroke-width="1.5"/><circle cx="620.00" cy="124.00" r="2.3" fill="#2b3642"/><text x="438.36" y="32.00" font-size="12" fill="#2b3642" font-family="Segoe UI, Tahoma, sans-serif">Human</text><text x="438.36" y="64.00" font-size="12" fill="#2b3642" font-family="Segoe UI, Tahoma, sans-serif">Chimpanzee</text><text x="519.64" y="96.00" font-size="12" fill="#2b3642" font-family="Segoe UI, Tahoma, sans-serif">Gorilla</text><text x="628.00" y="128.00" font-size="12" fill="#2b3642" font-family="Segoe UI, Tahoma, sans-serif">Orangutan</text></svg>